<svg width="512" height="512" viewBox="0 0 512 512" fill="none" xmlns="http://www.w3.org/2000/svg">
  <defs>
    <linearGradient id="bgGradient" x1="0%" y1="0%" x2="100%" y2="100%">
      <stop offset="0%" style="stop-color:#4338CA;stop-opacity:1" />
      <stop offset="100%" style="stop-color:#6366F1;stop-opacity:1" />
    </linearGradient>
    <linearGradient id="phoneGradient" x1="0%" y1="0%" x2="0%" y2="100%">
      <stop offset="0%" style="stop-color:#F9FAFB;stop-opacity:1" />
      <stop offset="100%" style="stop-color:#E5E7EB;stop-opacity:1" />
    </linearGradient>
    <linearGradient id="screenGradient" x1="0%" y1="0%" x2="0%" y2="100%">
      <stop offset="0%" style="stop-color:#3B82F6;stop-opacity:0.2" />
      <stop offset="100%" style="stop-color:#8B5CF6;stop-opacity:0.3" />
    </linearGradient>
    <filter id="shadow" x="-50%" y="-50%" width="200%" height="200%">
      <feDropShadow dx="0" dy="8" stdDeviation="16" flood-opacity="0.25"/>
    </filter>
    <filter id="glow" x="-50%" y="-50%" width="200%" height="200%">
      <feGaussianBlur stdDeviation="4" result="coloredBlur"/>
      <feMerge>
        <feMergeNode in="coloredBlur"/>
        <feMergeNode in="SourceGraphic"/>
      </feMerge>
    </filter>
  </defs>
  
  <rect width="512" height="512" rx="112" fill="url(#bgGradient)"/>
  
  <g filter="url(#shadow)">
    <rect x="176" y="96" width="160" height="280" rx="24" fill="url(#phoneGradient)"/>
    
    <rect x="192" y="120" width="128" height="200" rx="8" fill="url(#screenGradient)"/>
    
    <rect x="232" y="104" width="48" height="6" rx="3" fill="#9CA3AF" opacity="0.5"/>
    
    <circle cx="256" cy="348" r="14" fill="#E5E7EB"/>
    <circle cx="256" cy="348" r="10" fill="#4338CA" opacity="0.15"/>
  </g>
  
  <g filter="url(#glow)">
    <path d="M 216 160 L 240 160 L 240 170 L 216 170 Z" fill="#60A5FA" opacity="0.8"/>
    <path d="M 216 180 L 280 180 L 280 190 L 216 190 Z" fill="#60A5FA" opacity="0.6"/>
    <path d="M 216 200 L 265 200 L 265 210 L 216 210 Z" fill="#60A5FA" opacity="0.6"/>
    
    <circle cx="270" cy="245" r="6" fill="#34D399"/>
    <circle cx="286" cy="245" r="6" fill="#F59E0B"/>
    <circle cx="302" cy="245" r="6" fill="#EF4444"/>
  </g>
  
  <g opacity="0.9">
    <rect x="96" y="240" width="56" height="56" rx="8" fill="#FFFFFF" opacity="0.95"/>
    <path d="M 112 256 L 136 256 L 136 264 L 112 264 Z M 112 268 L 136 268 L 136 276 L 112 276 Z M 116 280 L 132 280 L 132 288 L 116 288 Z" fill="#4338CA" opacity="0.7"/>
  </g>
  
  <g opacity="0.9">
    <rect x="360" y="240" width="56" height="56" rx="8" fill="#FFFFFF" opacity="0.95"/>
    <circle cx="388" cy="260" r="8" stroke="#4338CA" stroke-width="2" fill="none" opacity="0.7"/>
    <path d="M 382 274 L 388 280 L 394 268" stroke="#4338CA" stroke-width="2.5" fill="none" opacity="0.7" stroke-linecap="round" stroke-linejoin="round"/>
  </g>
</svg>
